<svg width="16" height="16" viewBox="0 0 16 16" fill="none" xmlns="http://www.w3.org/2000/svg">
<path d="M15.5564 7.908C15.0811 7.424 14.9751 6.68867 15.2944 6.09C15.5224 5.66333 15.5384 5.156 15.3371 4.71533C15.1364 4.27533 14.7417 3.954 14.2697 3.84733C13.6091 3.69733 13.1217 3.136 13.0677 2.46C13.0284 1.978 12.7671 1.54133 12.3597 1.28C11.9537 1.018 11.4484 0.961333 10.9931 1.12733C10.3557 1.35867 9.64239 1.14867 9.23172 0.61C8.93839 0.226 8.48239 0 7.99839 0C7.51506 0 7.05906 0.226 6.76572 0.61C6.35706 1.14933 5.64372 1.35933 5.00639 1.128C4.55172 0.962666 4.04639 1.01933 3.63972 1.28067C3.23306 1.542 2.97105 1.97867 2.93239 2.46067C2.87772 3.13667 2.39105 3.69867 1.73039 3.848C1.25839 3.95467 0.863721 4.276 0.663054 4.716C0.462387 5.156 0.478387 5.664 0.706387 6.09C1.02572 6.688 0.919721 7.424 0.445054 7.908C0.10572 8.25267 -0.0529464 8.736 0.0157203 9.21467C0.084387 9.69333 0.373054 10.1127 0.795721 10.348C1.38772 10.678 1.69705 11.3547 1.55839 12.018C1.46039 12.4913 1.58772 12.9833 1.90439 13.3487C2.22172 13.7147 2.69105 13.9113 3.17239 13.8807C3.84972 13.8387 4.47439 14.2407 4.71706 14.8733C4.88972 15.3253 5.26372 15.67 5.72839 15.806C6.19172 15.942 6.69306 15.854 7.08239 15.568C7.62839 15.166 8.37306 15.166 8.91839 15.568C9.30772 15.8547 9.80906 15.9427 10.2724 15.806C10.7371 15.67 11.1111 15.3247 11.2844 14.8733C11.5264 14.2407 12.1517 13.838 12.8284 13.8807C13.3111 13.9113 13.7797 13.7147 14.0964 13.3487C14.4131 12.9833 14.5411 12.4913 14.4424 12.018C14.3044 11.3547 14.6131 10.678 15.2057 10.348C15.6277 10.112 15.9157 9.69333 15.9851 9.21467C16.0544 8.736 15.8951 8.25267 15.5564 7.908ZM7.16706 11.528L4.16706 8.61867L5.40506 7.38067L7.16706 9.05133L10.9291 5.19533L12.1671 6.43333L7.16706 11.528Z" fill="#F8765E"/>
</svg>
